<?xml version="1.0" standalone="no"?>
<!DOCTYPE svg PUBLIC "-//W3C//DTD SVG 20010904//EN"
 "http://www.w3.org/TR/2001/REC-SVG-20010904/DTD/svg10.dtd">
<svg version="1.0" xmlns="http://www.w3.org/2000/svg"
 width="108.000000pt" height="156.000000pt" viewBox="0 0 108.000000 156.000000"
 preserveAspectRatio="xMidYMid meet">

<g transform="translate(0.000000,156.000000) scale(0.100000,-0.100000)"
fill="#000000" stroke="none">
<path d="M552 1519 c-18 -6 -35 -16 -39 -24 -3 -8 -10 -12 -17 -8 -6 3 -7 2
-3 -3 5 -5 13 -9 18 -9 5 0 9 -3 9 -7 0 -5 0 -13 0 -19 0 -5 -4 -8 -9 -4 -12
7 -54 -51 -47 -64 8 -12 -32 -45 -57 -47 -34 -3 -67 -15 -67 -24 0 -5 -6 -15
-14 -22 -23 -24 -45 -74 -52 -119 -9 -59 -18 -73 -46 -74 -16 0 -23 -6 -23
-20 0 -16 6 -20 27 -18 26 2 28 -1 28 -38 0 -22 -7 -72 -16 -111 -20 -86 -13
-181 17 -241 23 -44 126 -182 155 -208 31 -27 89 -40 184 -42 61 0 85 -4 74
-10 -9 -5 -38 -7 -63 -5 -45 4 -49 3 -65 -26 -17 -30 -17 -30 1 -13 12 10 36
17 60 17 39 0 42 -2 58 -42 12 -29 20 -90 26 -188 4 -80 8 -146 8 -147 1 -2
30 -3 66 -3 53 0 65 3 65 16 0 33 -42 180 -61 212 -35 60 -19 165 28 183 14 5
29 7 34 3 5 -3 9 0 9 6 0 16 -28 24 -44 11 -7 -6 -30 -12 -52 -14 l-39 -3 78
76 c42 43 77 85 77 94 0 9 15 45 33 79 19 34 39 82 46 107 7 25 28 75 47 112
38 75 41 88 18 88 -11 0 -14 5 -9 18 21 51 27 95 23 172 -3 70 -9 94 -33 139
-45 83 -116 148 -210 192 -87 41 -149 49 -223 28z m78 -325 c0 -7 -4 -16 -10
-19 -6 -4 -7 1 -3 12 6 17 5 17 -14 1 -25 -23 -33 -23 -33 1 0 15 7 19 30 19
17 -1 30 -6 30 -14z m-98 -206 c-7 -7 -12 -8 -12 -2 0 14 12 26 19 19 2 -3 -1
-11 -7 -17z m178 -24 c0 -14 -3 -14 -15 -4 -13 11 -14 10 -9 -5 5 -13 4 -16
-4 -11 -19 12 -14 36 8 36 12 0 20 -7 20 -16z m-25 -65 c-10 -15 -25 -10 -19
6 4 8 10 12 15 9 5 -3 7 -10 4 -15z m-157 -22 c2 -11 -3 -17 -16 -17 -26 0
-34 11 -20 27 14 17 32 12 36 -10z m177 3 c3 -5 -1 -10 -10 -10 -9 0 -13 5
-10 10 3 6 8 10 10 10 2 0 7 -4 10 -10z m-105 -14 c0 -11 -19 -15 -25 -6 -3 5
1 10 9 10 9 0 16 -2 16 -4z m124 -12 c10 -4 16 -18 16 -38 l0 -31 -20 33 c-27
44 -27 48 4 36z m-200 -117 c17 3 17 2 -3 -7 -20 -9 -28 -7 -40 6 -15 15 -14
16 3 7 10 -6 28 -9 40 -6z m14 -106 c7 -1 10 -6 7 -11 -7 -11 -54 -3 -70 12
-6 6 1 7 20 4 17 -2 36 -5 43 -5z"/>
<path d="M435 1370 c-3 -6 1 -7 9 -4 18 7 21 14 7 14 -6 0 -13 -4 -16 -10z"/>
</g>
</svg>
