<svg id="Ebene_1" data-name="Ebene 1" xmlns="http://www.w3.org/2000/svg" viewBox="0 0 206.38 224.56"><defs><style>.cls-1{fill:#fff;}</style></defs><title>PK_white</title><g id="Ebene_2" data-name="Ebene 2"><path class="cls-1" d="M31.26,184.05H5.59A5.6,5.6,0,0,1,0,178.45V5.59A5.59,5.59,0,0,1,5.59,0H31.26c3.09,0,34.29.45,53.23.22s35.33,17.48,37.61,31c2.51,8.77,1.77,27,1.77,27L65.57,158.9l16.08-38.09-26.42.09.35-32,20.07-.1A11.28,11.28,0,0,0,86.89,77.49l-.08-33.14c0-6.85-4.64-12.66-11.49-12.75l-35.48.13c-1.29,0-2.45.64-2.46,1.92l-.26,53A2.39,2.39,0,0,0,39.53,89L60,88.88l.13,32-20.68.36a2.61,2.61,0,0,0-2.57,2.61v54.6A5.6,5.6,0,0,1,31.26,184.05Z"/><path class="cls-1" d="M104.21,168.51V219a5.6,5.6,0,0,1-5.6,5.59H73a5.6,5.6,0,0,1-5.6-5.59v-50L126.88,66l-23.3,54.67v7.09s3.74-10.32,7.21-14.57c2-2.72,45.56-67,45.56-67,4.26-6.86,9.94-6.25,15.23-6.25,0,0,29.42.13,26.58.16,0,0,4.26.87.2,6.68C180,72.86,144,121.93,144,121.93l61.78,95.7a3.91,3.91,0,0,1-3.18,6l-26.24.72a11.49,11.49,0,0,1-10-5.37l-44.51-71Z"/></g></svg>